<svg width="50" height="45" viewBox="0 0 50 45" fill="none" xmlns="http://www.w3.org/2000/svg">
<path fill-rule="evenodd" clip-rule="evenodd" d="M2.82306 5.82306C0 8.64614 0 13.1898 0 22.2771C0 31.3643 0 35.9082 2.82306 38.7311C5.64614 41.5542 10.1898 41.5542 19.2771 41.5542H22.8916C31.9788 41.5542 36.5227 41.5542 39.3455 38.7311C42.1687 35.9082 42.1687 31.3643 42.1687 22.2771C42.1687 13.1898 42.1687 8.64614 39.3455 5.82306C36.5227 3 31.9788 3 22.8916 3H19.2771C10.1898 3 5.64614 3 2.82306 5.82306ZM48.1928 28.9036C47.1947 28.9036 46.3855 28.0945 46.3855 27.0964V17.4578C46.3855 16.4597 47.1947 15.6506 48.1928 15.6506C49.1908 15.6506 50 16.4597 50 17.4578V27.0964C50 28.0945 49.1908 28.9036 48.1928 28.9036ZM22.1229 15.0482C22.1229 14.2198 21.4513 13.5482 20.6229 13.5482C19.7945 13.5482 19.1229 14.2198 19.1229 15.0482V20.7771H13.394C12.5655 20.7771 11.894 21.4487 11.894 22.2771C11.894 23.1055 12.5655 23.7771 13.394 23.7771H19.1229V29.506C19.1229 30.3345 19.7945 31.006 20.6229 31.006C21.4513 31.006 22.1229 30.3345 22.1229 29.506V23.7771H27.8518C28.6802 23.7771 29.3518 23.1055 29.3518 22.2771C29.3518 21.4487 28.6802 20.7771 27.8518 20.7771H22.1229V15.0482Z" fill="url(#paint0_linear_419_1201)"/>
<defs>
<linearGradient id="paint0_linear_419_1201" x1="65.6837" y1="-3.77649" x2="19.0005" y2="64.6906" gradientUnits="userSpaceOnUse">
<stop stop-color="#FF24D3"/>
<stop offset="0.48" stop-color="#865FFE"/>
<stop offset="1" stop-color="#36BDFD"/>
</linearGradient>
</defs>
</svg>
