<svg width="50" height="45" viewBox="0 0 50 45" fill="none" xmlns="http://www.w3.org/2000/svg">
<path fill-rule="evenodd" clip-rule="evenodd" d="M0 22.5C0 13.3076 2.87251e-07 8.71143 2.82306 5.8557C5.64614 3 10.1898 3 19.2771 3H22.8916C31.9788 3 36.5227 3 39.3455 5.8557C42.1687 8.71143 42.1687 13.3076 42.1687 22.5C42.1687 31.6923 42.1687 36.2887 39.3455 39.1442C36.5227 42 31.9788 42 22.8916 42H19.2771C10.1898 42 5.64614 42 2.82306 39.1442C2.87251e-07 36.2887 0 31.6923 0 22.5ZM24.0484 13.7831C24.8152 14.4295 24.9188 15.5822 24.28 16.3578L20.726 20.6719H25.3012C26.0024 20.6719 26.6405 21.0821 26.9378 21.7246C27.2352 22.3669 27.1386 23.1255 26.6896 23.6702L20.6655 30.9827C20.0265 31.7584 18.8869 31.8632 18.1201 31.217C17.3534 30.5706 17.2498 29.4179 17.8887 28.6423L21.4427 24.3281H16.8675C16.1662 24.3281 15.5283 23.9179 15.2309 23.2754C14.9334 22.6331 15.0302 21.8745 15.4791 21.3298L21.5031 14.0172C22.1422 13.2415 23.2817 13.1367 24.0484 13.7831Z" fill="#1C274C"/>
<path fill-rule="evenodd" clip-rule="evenodd" d="M0 22.5C0 13.3076 2.87251e-07 8.71143 2.82306 5.8557C5.64614 3 10.1898 3 19.2771 3H22.8916C31.9788 3 36.5227 3 39.3455 5.8557C42.1687 8.71143 42.1687 13.3076 42.1687 22.5C42.1687 31.6923 42.1687 36.2887 39.3455 39.1442C36.5227 42 31.9788 42 22.8916 42H19.2771C10.1898 42 5.64614 42 2.82306 39.1442C2.87251e-07 36.2887 0 31.6923 0 22.5ZM24.0484 13.7831C24.8152 14.4295 24.9188 15.5822 24.28 16.3578L20.726 20.6719H25.3012C26.0024 20.6719 26.6405 21.0821 26.9378 21.7246C27.2352 22.3669 27.1386 23.1255 26.6896 23.6702L20.6655 30.9827C20.0265 31.7584 18.8869 31.8632 18.1201 31.217C17.3534 30.5706 17.2498 29.4179 17.8887 28.6423L21.4427 24.3281H16.8675C16.1662 24.3281 15.5283 23.9179 15.2309 23.2754C14.9334 22.6331 15.0302 21.8745 15.4791 21.3298L21.5031 14.0172C22.1422 13.2415 23.2817 13.1367 24.0484 13.7831Z" fill="url(#paint0_linear_278_109)"/>
<path d="M46.3855 27.375C46.3855 28.3846 47.1947 29.2031 48.1928 29.2031C49.1908 29.2031 50 28.3846 50 27.375V17.625C50 16.6154 49.1908 15.7969 48.1928 15.7969C47.1947 15.7969 46.3855 16.6154 46.3855 17.625V27.375Z" fill="#1C274C"/>
<path d="M46.3855 27.375C46.3855 28.3846 47.1947 29.2031 48.1928 29.2031C49.1908 29.2031 50 28.3846 50 27.375V17.625C50 16.6154 49.1908 15.7969 48.1928 15.7969C47.1947 15.7969 46.3855 16.6154 46.3855 17.625V27.375Z" fill="url(#paint1_linear_278_109)"/>
<defs>
<linearGradient id="paint0_linear_278_109" x1="54.8077" y1="-1.40323" x2="10.6435" y2="57.5064" gradientUnits="userSpaceOnUse">
<stop stop-color="#FF24D3"/>
<stop offset="0.48" stop-color="#865FFE"/>
<stop offset="1" stop-color="#36BDFD"/>
</linearGradient>
<linearGradient id="paint1_linear_278_109" x1="54.8077" y1="-1.40323" x2="10.6435" y2="57.5064" gradientUnits="userSpaceOnUse">
<stop stop-color="#FF24D3"/>
<stop offset="0.48" stop-color="#865FFE"/>
<stop offset="1" stop-color="#36BDFD"/>
</linearGradient>
</defs>
</svg>
