<svg width="44" height="44" viewBox="0 0 44 44" fill="none" xmlns="http://www.w3.org/2000/svg">
<path fill-rule="evenodd" clip-rule="evenodd" d="M0.996294 9.62448C0 12.2199 0 15.4799 0 22C0 28.5201 0 31.7801 0.996294 34.3755C2.51976 38.3443 5.65571 41.4802 9.62448 43.0037C12.2199 44 15.4799 44 22 44C28.5201 44 31.7801 44 34.3755 43.0037C38.3443 41.4802 41.4802 38.3443 43.0037 34.3755C44 31.7801 44 28.5201 44 22C44 15.4799 44 12.2199 43.0037 9.62448C41.4802 5.65571 38.3443 2.51976 34.3755 0.996294C31.7801 0 28.5201 0 22 0C15.4799 0 12.2199 0 9.62448 0.996294C5.65571 2.51976 2.51976 5.65571 0.996294 9.62448ZM31.6004 14.3858V14.3857C31.637 13.8125 31.6712 13.2757 31.1986 12.8024C30.8515 12.4562 30.4693 12.3821 30.0642 12.3821C29.9177 12.3821 29.7682 12.3916 29.6161 12.4013L29.616 12.4013C29.4586 12.4113 29.2984 12.4215 29.136 12.4215C29.0606 12.4215 28.9847 12.4181 28.9093 12.4124C28.566 11.7834 28.3137 11.1457 28.0956 10.5945C27.5886 9.31306 27.2666 8.49914 26.4164 9.34874C25.0601 10.7055 24.2168 14.4378 25.6147 16.8559C24.5584 16.1108 23.2973 15.7112 22.0047 15.7119C18.5298 15.7119 15.714 18.5277 15.714 22.0022C15.714 23.3498 16.1413 24.5957 16.8632 25.6197C14.4457 24.2152 10.7065 25.0589 9.34931 26.4153C8.49879 27.2661 9.31271 27.5881 10.5945 28.0952C11.1458 28.3133 11.7837 28.5657 12.4129 28.9091C12.4302 29.1494 12.4151 29.3855 12.4003 29.6158C12.3636 30.1887 12.3292 30.7251 12.8021 31.198C13.1496 31.5447 13.5314 31.6188 13.9365 31.6188C14.0831 31.6188 14.2325 31.6092 14.3843 31.5995H14.3844C14.5415 31.5895 14.7013 31.5793 14.8634 31.5793C14.9388 31.5793 15.0155 31.5828 15.0918 31.5884C15.4346 32.2167 15.6867 32.8538 15.9046 33.4046L15.9046 33.4046C16.4119 34.6864 16.7343 35.5011 17.5847 34.6513C18.941 33.2945 19.7839 29.557 18.3821 27.1398C19.4406 27.8903 20.7063 28.293 22.0038 28.292C25.4782 28.292 28.294 25.4762 28.294 22.0017C28.294 20.6554 27.8676 19.4108 27.1474 18.3873C29.5654 19.7835 33.2955 18.9385 34.6505 17.5843C35.5013 16.7341 34.6873 16.412 33.4058 15.905C32.8545 15.6869 32.2167 15.4346 31.5877 15.0913C31.5706 14.8515 31.5857 14.6157 31.6004 14.3858V14.3858V14.3858ZM14.3682 30.7693L14.3317 30.7716C14.1909 30.7811 14.0574 30.7894 13.9374 30.7894L14.3682 30.7693ZM24.6385 26.9036C25.1591 24.119 23.4616 23.0047 22.4682 22.3526L22.4681 22.3525L22.4681 22.3525L22.4681 22.3525C22.3074 22.247 22.1651 22.1536 22.0536 22.0672C22.444 22.6547 22.6189 23.3592 22.5487 24.0611C22.4784 24.7629 22.1674 25.4188 21.6684 25.9174C21.3468 26.2401 20.9566 26.4865 20.5269 26.6382C20.0972 26.7898 19.6389 26.8429 19.1859 26.7936C18.3129 26.2815 17.5956 25.5417 17.1107 24.6533C19.8864 25.159 21.0037 23.4682 21.6587 22.477L21.6587 22.4769C21.7821 22.2901 21.8892 22.1281 21.9878 22.0104L21.9865 22.0056C20.794 22.8376 19.1443 22.7271 18.0831 21.6655C17.7606 21.3434 17.515 20.9528 17.3644 20.5226C17.2139 20.0925 17.1622 19.634 17.2134 19.1811C17.7252 18.3106 18.4635 17.595 19.3497 17.1107C18.8312 19.8922 20.5264 21.0059 21.519 21.658C21.7037 21.7793 21.864 21.8847 21.9813 21.9818C21.5773 21.3935 21.3919 20.6815 21.4574 19.9709C21.5229 19.2603 21.835 18.595 22.3396 18.0904C22.6625 17.767 23.0539 17.5204 23.485 17.3688C23.9161 17.2172 24.3758 17.1645 24.83 17.2147C25.7034 17.7296 26.4202 18.4726 26.9035 19.364C24.1061 18.8413 22.9841 20.5405 22.3277 21.5348C22.2098 21.7133 22.1069 21.8691 22.012 21.9853L22.0077 21.9974L22.0105 22.0015C22.0118 22.0035 22.0129 22.0052 22.0142 22.0065C23.208 21.1693 24.8616 21.2776 25.9254 22.3415C26.2471 22.663 26.4923 23.0528 26.643 23.4819C26.7937 23.911 26.846 24.3685 26.796 24.8206C26.2804 25.6988 25.5342 26.4192 24.6385 26.9036Z" fill="url(#paint0_linear_129_1340)"/>
<defs>
<linearGradient id="paint0_linear_129_1340" x1="44" y1="0" x2="9.53675e-07" y2="44" gradientUnits="userSpaceOnUse">
<stop stop-color="#FF24D3"/>
<stop offset="0.48" stop-color="#865FFE"/>
<stop offset="1" stop-color="#36BDFD"/>
</linearGradient>
</defs>
</svg>
