<svg width="44" height="44" viewBox="0 0 44 44" fill="none" xmlns="http://www.w3.org/2000/svg">
<path fill-rule="evenodd" clip-rule="evenodd" d="M0.996294 9.62448C0 12.2199 0 15.4799 0 22C0 28.5201 0 31.7801 0.996294 34.3755C2.51976 38.3443 5.65571 41.4802 9.62448 43.0037C12.2199 44 15.4799 44 22 44C28.5201 44 31.7801 44 34.3755 43.0037C38.3443 41.4802 41.4802 38.3443 43.0037 34.3755C44 31.7801 44 28.5201 44 22C44 15.4799 44 12.2199 43.0037 9.62448C41.4802 5.65571 38.3443 2.51976 34.3755 0.996294C31.7801 0 28.5201 0 22 0C15.4799 0 12.2199 0 9.62448 0.996294C5.65571 2.51976 2.51976 5.65571 0.996294 9.62448ZM19.1029 9C19.1029 11.6924 17.029 13.875 14.4706 13.875V14.525C17.029 14.525 19.1029 16.7076 19.1029 19.4H24.6618C24.6618 16.7076 26.7357 14.525 29.2941 14.525V13.875C26.7357 13.875 24.6618 11.6924 24.6618 9H19.1029ZM23.1177 14.2C23.1177 14.918 22.5646 15.5 21.8824 15.5C21.2001 15.5 20.6471 14.918 20.6471 14.2C20.6471 13.482 21.2001 12.9 21.8824 12.9C22.5646 12.9 23.1177 13.482 23.1177 14.2ZM14.5084 11.9247C14.5717 10.8971 14.7411 10.2383 15.1942 9.76153C15.6473 9.28471 16.2733 9.10644 17.2498 9.03979C17.2297 10.6236 16.0134 11.9036 14.5084 11.9247ZM14.4706 34.2049H14.7917C16.0404 34.2049 17.3025 34.3418 18.5178 34.6053C20.6676 35.0714 22.9309 35.1278 25.1026 34.758C26.1735 34.5754 27.2262 34.2966 28.1793 33.8125C29.0395 33.3755 30.0932 32.7596 30.8011 32.0697C31.5079 31.3808 32.244 30.2533 32.7664 29.3719C33.2145 28.6162 32.9978 27.6891 32.2891 27.1259C31.502 26.5005 30.3339 26.5006 29.5469 27.1263L27.3144 28.9009C26.4492 29.5888 25.5042 30.2219 24.3784 30.4109C24.243 30.4336 24.1012 30.4543 23.9532 30.4724C24.1333 30.4318 24.3121 30.3148 24.4799 30.1608C25.2745 29.4309 25.3246 28.201 24.6352 27.386C24.4754 27.197 24.2881 27.0393 24.0801 26.9087C20.9824 24.9644 16.3415 26.0903 13.0736 28.0906L13.0731 28.0909C12.5771 28.3945 12.329 28.5464 12.1645 28.8474C12 29.1483 12 29.4853 12 30.1593V31.6049C12 32.8306 12 33.4434 12.3618 33.8242C12.7236 34.2049 13.3059 34.2049 14.4706 34.2049H14.4706ZM28.5705 9.76153C28.1174 9.28471 27.4915 9.10644 26.515 9.03979C26.535 10.6236 27.7512 11.9036 29.2563 11.9247C29.193 10.8971 29.0236 10.2383 28.5705 9.76153ZM26.515 19.3602C27.4915 19.2936 28.1174 19.1153 28.5705 18.6385C29.0236 18.1617 29.193 17.5029 29.2563 16.4753C27.7512 16.4964 26.5351 17.7764 26.515 19.3602ZM15.1942 18.6385C15.6473 19.1153 16.2733 19.2936 17.2498 19.3602C17.2297 17.7764 16.0134 16.4964 14.5084 16.4753C14.5717 17.5029 14.7411 18.1617 15.1942 18.6385Z" fill="url(#paint0_linear_129_1376)"/>
<defs>
<linearGradient id="paint0_linear_129_1376" x1="44" y1="0" x2="0" y2="44" gradientUnits="userSpaceOnUse">
<stop stop-color="#FF24D3"/>
<stop offset="0.48" stop-color="#865FFE"/>
<stop offset="1" stop-color="#36BDFD"/>
</linearGradient>
</defs>
</svg>
