<svg width="30" height="23" viewBox="0 0 30 23" fill="none" xmlns="http://www.w3.org/2000/svg">
<path d="M29.2248 4.53042C30.2584 3.494 30.2584 1.8137 29.2248 0.777287C28.1911 -0.259096 26.5148 -0.259096 25.4812 0.777287L9.70599 16.593L7.1664 14.047L4.51881 11.3927C3.48507 10.3564 1.80904 10.3564 0.775302 11.3927C-0.258434 12.4289 -0.258434 14.1092 0.775302 15.1458L7.16568 21.5526L7.83412 22.2228C8.86783 23.2591 10.5438 23.2591 11.5778 22.2228L29.2248 4.53042Z" fill="#0B090E"/>
<path fill-rule="evenodd" clip-rule="evenodd" d="M7.1664 14.047L4.51881 11.3927C3.48507 10.3564 1.80904 10.3564 0.775302 11.3927C-0.258434 12.4289 -0.258434 14.1092 0.775302 15.1458L7.16568 21.5526L7.1664 14.047Z" fill="#0B090E"/>
</svg>
