<svg width="21" height="22" viewBox="0 0 21 22" fill="none" xmlns="http://www.w3.org/2000/svg">
<path d="M14.0999 1.83319e-07H9.77306C7.81284 -1.08168e-05 6.26017 -3.28976e-05 5.04502 0.162362C3.79444 0.329486 2.78223 0.681611 1.98398 1.47507C1.18574 2.26852 0.831476 3.27464 0.663344 4.51771C0.499967 5.72556 0.499989 7.26889 0.5 9.21732V15.6387C0.5 17.2977 1.52216 18.7193 2.97462 19.3153C2.89986 18.315 2.89992 16.9112 2.89999 15.7434V10.2327C2.89991 8.82286 2.89983 7.60816 3.03141 6.63539C3.17242 5.59287 3.49042 4.59356 4.30587 3.783C5.12132 2.97244 6.12668 2.65636 7.1755 2.5162C8.15415 2.38542 9.37628 2.38548 10.7946 2.38556H14.2053C15.6236 2.38548 16.843 2.38542 17.8217 2.5162C17.2362 1.04258 15.7906 1.83319e-07 14.0999 1.83319e-07Z" fill="#0B090E"/>
<path d="M4.50009 10.3372C4.50009 7.33838 4.50009 5.83897 5.43734 4.90735C6.37459 3.97573 7.88308 3.97573 10.9001 3.97573H14.1C17.117 3.97573 18.6255 3.97573 19.5628 4.90735C20.5 5.83897 20.5 7.33839 20.5 10.3372V15.6385C20.5 18.6374 20.5 20.1368 19.5628 21.0684C18.6255 22 17.117 22 14.1 22H10.9001C7.88308 22 6.37459 22 5.43734 21.0684C4.50009 20.1368 4.50009 18.6374 4.50009 15.6385V10.3372Z" fill="#0B090E"/>
</svg>
