<svg width="18" height="22" viewBox="0 0 18 22" fill="none" xmlns="http://www.w3.org/2000/svg">
<path d="M8.43333 8.8C10.937 8.8 12.9667 6.83005 12.9667 4.4C12.9667 1.96995 10.937 0 8.43333 0C5.92964 0 3.9 1.96995 3.9 4.4C3.9 6.83005 5.92964 8.8 8.43333 8.8Z" fill="#0B090E"/>
<path fill-rule="evenodd" clip-rule="evenodd" d="M13.5333 22C11.6634 22 10.7284 22 10.1476 21.4361C9.56667 20.8724 9.56667 19.9649 9.56667 18.15C9.56667 16.3351 9.56667 15.4276 10.1476 14.8639C10.7284 14.3 11.6634 14.3 13.5333 14.3C15.4032 14.3 16.3382 14.3 16.9191 14.8639C17.5 15.4276 17.5 16.3351 17.5 18.15C17.5 19.9649 17.5 20.8724 16.9191 21.4361C16.3382 22 15.4032 22 13.5333 22ZM14.1944 16.4388C14.1944 16.0845 13.8985 15.7972 13.5333 15.7972C13.1682 15.7972 12.8723 16.0845 12.8723 16.4388V17.5084H11.7703C11.4053 17.5084 11.1092 17.7956 11.1092 18.15C11.1092 18.5044 11.4053 18.7916 11.7703 18.7916H12.8723V19.8612C12.8723 20.2155 13.1682 20.5028 13.5333 20.5028C13.8985 20.5028 14.1944 20.2155 14.1944 19.8612V18.7916H15.2963C15.6614 18.7916 15.9574 18.5044 15.9574 18.15C15.9574 17.7956 15.6614 17.5084 15.2963 17.5084H14.1944V16.4388Z" fill="#0B090E"/>
<path d="M12.3033 12.6581C11.1585 12.3026 9.83867 12.1 8.43333 12.1C4.05188 12.1 0.5 14.07 0.5 16.5C0.5 18.8547 3.83477 20.7772 8.02771 20.8944C7.997 20.7555 7.9732 20.6175 7.9545 20.4821C7.86644 19.8466 7.86655 19.0702 7.86667 18.2446V18.0554C7.86655 17.2299 7.86644 16.4534 7.9545 15.8179C8.05242 15.1107 8.28657 14.3366 8.94549 13.6971C9.60452 13.0575 10.4019 12.8303 11.1306 12.7351C11.4842 12.6891 11.88 12.6678 12.3033 12.6581Z" fill="#0B090E"/>
</svg>
