<svg width="50" height="50" viewBox="0 0 50 50" fill="none" xmlns="http://www.w3.org/2000/svg">
<path fill-rule="evenodd" clip-rule="evenodd" d="M1.6349 8.19014C0 11.3988 0 15.5992 0 24V26C0 34.4008 0 38.6012 1.6349 41.8099C3.073 44.6323 5.36771 46.927 8.19014 48.3651C11.3988 50 15.5992 50 24 50H26C34.4008 50 38.6012 50 41.8099 48.3651C44.6323 46.927 46.927 44.6323 48.3651 41.8099C50 38.6012 50 34.4008 50 26V24C50 15.5992 50 11.3988 48.3651 8.19014C46.927 5.36771 44.6323 3.073 41.8099 1.6349C38.6012 0 34.4008 0 26 0H24C15.5992 0 11.3988 0 8.19014 1.6349C5.36771 3.073 3.073 5.36771 1.6349 8.19014ZM28.9248 14C30.9577 14.3599 32.8874 14.9898 34.6993 15.8446H34.7287C37.8958 20.6435 39.4573 26.0573 38.8828 32.3108C36.467 34.1554 34.11 35.2652 31.7973 36C31.2228 35.2052 30.722 34.3504 30.2801 33.4656C31.105 33.1357 31.9152 32.7457 32.6664 32.2809C32.4602 32.1309 32.2687 31.9809 32.0772 31.816C27.5254 34.0055 22.5317 34.0055 17.921 31.816C17.8525 31.8696 17.7841 31.9251 17.7149 31.9812C17.5907 32.082 17.4643 32.1845 17.3318 32.2809C18.083 32.7457 18.8785 33.1507 19.7182 33.4656C19.2762 34.3504 18.7754 35.2052 18.2009 36C15.8882 35.2652 13.546 34.1554 11.1154 32.3108C10.6293 26.9271 11.6163 21.4533 15.2695 15.8446C17.0814 14.9898 19.0111 14.3599 21.0439 14C21.2943 14.4499 21.589 15.0648 21.7952 15.5596C23.9017 15.2297 26.0376 15.2297 28.1883 15.5596C28.3798 15.0648 28.6744 14.4499 28.9248 14ZM17.8179 26.1023C17.8179 27.7069 18.9522 29.0116 20.3368 29.0116C21.751 29.0116 22.8558 27.6919 22.8558 26.1023C22.8705 24.4976 21.751 23.1929 20.3368 23.1929C18.9227 23.1929 17.8179 24.4976 17.8179 26.1023ZM27.113 26.1023C27.113 27.7069 28.2472 29.0116 29.6319 29.0116C31.0461 29.0116 32.1509 27.6919 32.1509 26.1023C32.1656 24.4976 31.0461 23.1929 29.6319 23.1929C28.2178 23.1929 27.113 24.4976 27.113 26.1023Z" fill="url(#paint0_linear_278_330)"/>
<defs>
<linearGradient id="paint0_linear_278_330" x1="54.8077" y1="-5.64516" x2="-4.13267" y2="55.6778" gradientUnits="userSpaceOnUse">
<stop stop-color="#FF24D3"/>
<stop offset="0.48" stop-color="#865FFE"/>
<stop offset="1" stop-color="#36BDFD"/>
</linearGradient>
</defs>
</svg>
