<svg width="50" height="50" viewBox="0 0 50 50" fill="none" xmlns="http://www.w3.org/2000/svg">
<path fill-rule="evenodd" clip-rule="evenodd" d="M1.6349 8.19014C0 11.3988 0 15.5992 0 24V26C0 34.4008 0 38.6012 1.6349 41.8099C3.073 44.6323 5.36771 46.927 8.19014 48.3651C11.3988 50 15.5992 50 24 50H26C34.4008 50 38.6012 50 41.8099 48.3651C44.6323 46.927 46.927 44.6323 48.3651 41.8099C50 38.6012 50 34.4008 50 26V24C50 15.5992 50 11.3988 48.3651 8.19014C46.927 5.36771 44.6323 3.073 41.8099 1.6349C38.6012 0 34.4008 0 26 0H24C15.5992 0 11.3988 0 8.19014 1.6349C5.36771 3.073 3.073 5.36771 1.6349 8.19014ZM22.4013 26.9158L11.4329 12.5H19.8865L27.0772 21.9507L35.9768 12.5H38.461L28.1872 23.4098L39.7727 38.6364H31.3191L23.5113 28.3748L13.8478 38.6364H11.3636L22.4013 26.9158ZM18.9696 14.2986H15.086L32.2354 36.8375H36.119L18.9696 14.2986Z" fill="url(#paint0_linear_278_301)"/>
<defs>
<linearGradient id="paint0_linear_278_301" x1="54.8077" y1="-5.64516" x2="-4.13267" y2="55.6778" gradientUnits="userSpaceOnUse">
<stop stop-color="#FF24D3"/>
<stop offset="0.48" stop-color="#865FFE"/>
<stop offset="1" stop-color="#36BDFD"/>
</linearGradient>
</defs>
</svg>
