<svg width="44" height="44" viewBox="0 0 44 44" fill="none" xmlns="http://www.w3.org/2000/svg">
<path d="M14.45 23.547L14.4435 27.9111C14.4423 28.7133 14.4411 29.4491 14.4822 30.0722C14.5086 30.4723 14.5553 30.8925 14.655 31.3085L14.6125 31.3086C14.5318 31.3087 14.4913 31.3088 14.4514 31.3094C13.703 31.3207 12.9632 31.4745 12.2715 31.7625C12.2345 31.7779 12.1974 31.7939 12.1232 31.826L11.6689 32.0225C11.0535 32.2886 10.3686 31.8386 10.3696 31.1688C10.3725 29.2465 10.376 26.9386 10.7024 26.1494C10.9902 25.4534 11.4536 24.8541 12.0419 24.4173C12.5808 24.0172 13.2663 23.8141 14.45 23.547Z" fill="white"/>
<path d="M29.6533 31.2874C30.0081 31.29 30.2513 31.2993 30.4919 31.3284C30.8094 31.3669 31.1233 31.4313 31.4301 31.5207C31.7757 31.6215 32.1091 31.7649 32.7759 32.0515C33.3187 32.285 33.9353 31.8736 33.9362 31.2774L33.9364 31.1332C33.9392 29.2108 33.9427 26.9029 33.6187 26.1148C33.333 25.4195 32.8713 24.8217 32.2844 24.3867C31.7466 23.9882 31.062 23.7872 29.8793 23.5237L29.8727 27.9024C29.8715 28.7228 29.8704 29.475 29.8239 30.1098C29.7961 30.4903 29.749 30.8898 29.6533 31.2874Z" fill="white"/>
<path fill-rule="evenodd" clip-rule="evenodd" d="M28.0496 27.8447L28.0646 17.8114C28.0669 16.3664 28.0679 15.644 27.7998 14.9948C27.5317 14.3455 27.0216 13.8354 26.0014 12.8153L25.514 12.3279C23.9453 10.7591 23.1609 9.97471 22.1847 9.97621C21.2085 9.97763 20.4217 10.7644 18.8483 12.3379L18.3594 12.8267C17.3362 13.85 16.8245 14.3616 16.5545 15.0117C16.2844 15.6617 16.2833 16.3842 16.2812 17.8291L16.266 27.8625C16.2635 29.5509 16.2619 30.5979 16.5638 31.3057C16.6591 31.5293 16.7848 31.7192 16.9502 31.8846C17.6395 32.5738 18.7504 32.5722 20.9724 32.5688L21.271 32.5684L21.2449 29.0389C21.2411 28.5355 21.6461 28.1244 22.1495 28.1207C22.6528 28.117 23.0639 28.522 23.0677 29.0254L23.0939 32.5657L23.329 32.5653C25.551 32.562 26.662 32.5602 27.3533 31.8689C27.506 31.7162 27.6251 31.543 27.718 31.3418C28.0454 30.6325 28.047 29.5757 28.0496 27.8447ZM24.5274 19.6019C24.5254 20.9035 23.4687 21.9602 22.1671 21.9621C20.8656 21.9641 19.812 20.9106 19.814 19.609C19.816 18.3074 20.8726 17.2507 22.1742 17.2487C23.4758 17.2468 24.5294 18.3003 24.5274 19.6019Z" fill="white"/>
</svg>
