<svg width="44" height="44" viewBox="0 0 44 44" fill="none" xmlns="http://www.w3.org/2000/svg">
<path fill-rule="evenodd" clip-rule="evenodd" d="M0.996294 9.62448C0 12.2199 0 15.4799 0 22C0 28.5201 0 31.7801 0.996294 34.3755C2.51976 38.3443 5.65571 41.4802 9.62448 43.0037C12.2199 44 15.4799 44 22 44C28.5201 44 31.7801 44 34.3755 43.0037C38.3443 41.4802 41.4802 38.3443 43.0037 34.3755C44 31.7801 44 28.5201 44 22C44 15.4799 44 12.2199 43.0037 9.62448C41.4802 5.65571 38.3443 2.51976 34.3755 0.996294C31.7801 0 28.5201 0 22 0C15.4799 0 12.2199 0 9.62448 0.996294C5.65571 2.51976 2.51976 5.65571 0.996294 9.62448ZM28.0646 17.8114L28.0496 27.8447V27.8452C28.047 29.5759 28.0454 30.6325 27.718 31.3418C27.6251 31.543 27.506 31.7162 27.3533 31.8689C26.662 32.5602 25.551 32.562 23.329 32.5653L23.0939 32.5657L23.0677 29.0254C23.0639 28.522 22.6528 28.117 22.1495 28.1207C21.6461 28.1244 21.2411 28.5355 21.2449 29.0389L21.271 32.5684L20.9724 32.5688C18.7504 32.5722 17.6395 32.5738 16.9502 31.8846C16.7848 31.7192 16.6591 31.5293 16.5638 31.3057C16.2619 30.5979 16.2635 29.5509 16.266 27.8625L16.2812 17.8291C16.2833 16.3842 16.2844 15.6617 16.5545 15.0117C16.8245 14.3616 17.3362 13.85 18.3594 12.8267L18.8483 12.3379C20.4217 10.7644 21.2085 9.97763 22.1847 9.97621C23.1609 9.97471 23.9453 10.7591 25.514 12.3279L26.0014 12.8153C27.0216 13.8354 27.5317 14.3455 27.7998 14.9948C28.0679 15.644 28.0669 16.3664 28.0646 17.8114ZM22.1671 21.9621C23.4687 21.9602 24.5254 20.9035 24.5274 19.6019C24.5294 18.3003 23.4758 17.2468 22.1742 17.2487C20.8726 17.2507 19.816 18.3074 19.814 19.609C19.812 20.9106 20.8656 21.9641 22.1671 21.9621ZM29.6533 31.2873C30.0081 31.29 30.2513 31.2993 30.4919 31.3284C30.8094 31.3669 31.1233 31.4313 31.4301 31.5207C31.7757 31.6215 32.1091 31.7649 32.7759 32.0515C33.3187 32.285 33.9353 31.8736 33.9362 31.2774L33.9364 31.1332V31.1325C33.9392 29.2103 33.9426 26.9028 33.6187 26.1148C33.333 25.4195 32.8713 24.8217 32.2844 24.3867C31.7466 23.9882 31.062 23.7872 29.8793 23.5237L29.8727 27.9024L29.8727 27.9106V27.9107C29.8714 28.7278 29.8703 29.4771 29.8239 30.1098C29.7961 30.4903 29.749 30.8898 29.6533 31.2873ZM14.45 23.547L14.4435 27.9111V27.9119C14.4423 28.7138 14.4411 29.4493 14.4822 30.0722C14.5086 30.4723 14.5553 30.8925 14.655 31.3085L14.6125 31.3086L14.6022 31.3086C14.5283 31.3087 14.4896 31.3088 14.4514 31.3094C13.703 31.3207 12.9632 31.4745 12.2715 31.7625C12.2345 31.7779 12.1974 31.7939 12.1232 31.826L11.6689 32.0224C11.0535 32.2886 10.3686 31.8386 10.3696 31.1688V31.1686C10.3725 29.2464 10.376 26.9385 10.7024 26.1494C10.9902 25.4534 11.4536 24.8541 12.0419 24.4173C12.5808 24.0172 13.2663 23.8141 14.45 23.547Z" fill="url(#paint0_linear_129_1365)"/>
<defs>
<linearGradient id="paint0_linear_129_1365" x1="44" y1="0" x2="0" y2="44" gradientUnits="userSpaceOnUse">
<stop stop-color="#FF24D3"/>
<stop offset="0.48" stop-color="#865FFE"/>
<stop offset="1" stop-color="#36BDFD"/>
</linearGradient>
</defs>
</svg>
