<svg width="44" height="44" viewBox="0 0 44 44" fill="none" xmlns="http://www.w3.org/2000/svg">
<path d="M31.5877 15.0913C31.5279 14.2532 31.8607 13.4654 31.1986 12.8024C30.8515 12.4562 30.4693 12.3821 30.0642 12.3821C29.766 12.3821 29.4553 12.4215 29.136 12.4215C29.0606 12.4215 28.9847 12.4181 28.9093 12.4124C27.768 10.3211 27.6323 8.13366 26.4164 9.34874C25.0601 10.7055 24.2168 14.4378 25.6147 16.8559C24.5584 16.1108 23.2973 15.7112 22.0047 15.7119C18.5298 15.7119 15.714 18.5277 15.714 22.0022C15.714 23.3498 16.1413 24.5957 16.8632 25.6197C14.4457 24.2152 10.7065 25.0589 9.34931 26.4153C8.13296 27.6321 10.3208 27.7673 12.4129 28.9091C12.4732 29.7472 12.1391 30.535 12.8021 31.198C13.1496 31.5447 13.5314 31.6188 13.9365 31.6188C14.2347 31.6188 14.5445 31.5793 14.8634 31.5793C14.9388 31.5793 15.0155 31.5828 15.0918 31.5884C16.2323 33.6788 16.3688 35.8663 17.5847 34.6513C18.941 33.2945 19.7839 29.557 18.3821 27.1398C19.4406 27.8903 20.7063 28.293 22.0038 28.292C25.4782 28.292 28.294 25.4762 28.294 22.0017C28.294 20.6554 27.8676 19.4108 27.1474 18.3873C29.5654 19.7835 33.2955 18.9385 34.6505 17.5843C35.8673 16.3684 33.679 16.2327 31.5877 15.0913ZM30.0637 13.2111C30.377 13.2111 30.494 13.2709 30.6123 13.3887C30.8034 13.5803 30.8078 13.7766 30.7722 14.3317L30.7721 14.3337C30.7483 14.7067 30.7213 15.1303 30.8238 15.5979C31.0721 16.7306 31.7975 17.4027 32.5432 17.801C31.7606 18.0796 30.9361 18.2222 30.1053 18.2226C28.7624 18.2226 27.6245 17.8244 26.9004 17.1003C25.4982 15.6976 25.5727 13.1747 26.1967 11.4522C26.5945 12.1997 27.267 12.9281 28.4036 13.1777C28.629 13.2267 28.8677 13.2505 29.1355 13.2505C29.3231 13.2505 29.4966 13.2398 29.6644 13.2295C29.6656 13.2294 29.6669 13.2293 29.6681 13.2293C29.8102 13.2193 29.9437 13.2111 30.0637 13.2111ZM13.9374 30.7894C13.6245 30.7894 13.5075 30.7291 13.3888 30.6113C13.1977 30.4197 13.1934 30.2239 13.2289 29.6692C13.2532 29.2948 13.28 28.8705 13.1773 28.4021C12.9286 27.2694 12.2032 26.5973 11.457 26.199C12.2397 25.9204 13.0642 25.7778 13.8949 25.7774C15.2383 25.7774 16.3762 26.1761 17.1003 26.9002C18.5021 28.3029 18.428 30.8253 17.804 32.5478C17.4066 31.8003 16.7337 31.0723 15.5979 30.8236C15.3567 30.7721 15.1105 30.7473 14.8639 30.7495C14.6749 30.7495 14.5007 30.7612 14.3317 30.7716C14.1909 30.7811 14.0574 30.7894 13.9374 30.7894ZM24.6385 26.9036C25.2434 23.6683 22.854 22.6877 22.0536 22.0672C22.444 22.6547 22.6189 23.3592 22.5487 24.0611C22.4784 24.7629 22.1674 25.4188 21.6684 25.9174C21.3468 26.2401 20.9566 26.4865 20.5269 26.6382C20.0972 26.7898 19.6389 26.8429 19.1859 26.7936C18.3129 26.2815 17.5956 25.5417 17.1107 24.6533C20.4096 25.2544 21.366 22.7527 21.9878 22.0104L21.9865 22.0056C20.794 22.8376 19.1443 22.7271 18.0831 21.6655C17.7606 21.3434 17.515 20.9528 17.3644 20.5226C17.2139 20.0925 17.1622 19.634 17.2134 19.1811C17.7252 18.3106 18.4635 17.595 19.3497 17.1107C18.7348 20.4097 21.2338 21.3626 21.9813 21.9818C21.5773 21.3935 21.3919 20.6815 21.4574 19.9709C21.5229 19.2603 21.835 18.595 22.3396 18.0904C22.6625 17.767 23.0539 17.5204 23.485 17.3688C23.9161 17.2172 24.3758 17.1645 24.83 17.2147C25.7034 17.7296 26.4202 18.4726 26.9035 19.364C23.6037 18.7474 22.6352 21.2226 22.012 21.9853L22.0077 21.9974C22.0103 22.0009 22.012 22.0043 22.0142 22.0065C23.208 21.1693 24.8616 21.2776 25.9254 22.3415C26.2471 22.663 26.4923 23.0528 26.643 23.4819C26.7937 23.911 26.846 24.3685 26.796 24.8206C26.2804 25.6988 25.5342 26.4192 24.6385 26.9036Z" fill="white"/>
<path d="M30.0637 13.2111C30.377 13.2111 30.494 13.2709 30.6123 13.3887C30.8034 13.5803 30.8078 13.7766 30.7722 14.3317L30.7721 14.3337C30.7483 14.7067 30.7213 15.1303 30.8238 15.5979C31.0721 16.7306 31.7975 17.4027 32.5432 17.801C31.7606 18.0796 30.9361 18.2222 30.1053 18.2226C28.7624 18.2226 27.6245 17.8244 26.9004 17.1003C25.4982 15.6976 25.5727 13.1747 26.1967 11.4522C26.5945 12.1997 27.267 12.9281 28.4036 13.1777C28.629 13.2267 28.8677 13.2505 29.1355 13.2505C29.3231 13.2505 29.4966 13.2398 29.6644 13.2295L29.6681 13.2293C29.8102 13.2193 29.9437 13.2111 30.0637 13.2111Z" fill="white"/>
<path d="M13.9374 30.7894C13.6245 30.7894 13.5075 30.7291 13.3888 30.6113C13.1977 30.4197 13.1934 30.2239 13.2289 29.6692C13.2532 29.2948 13.28 28.8705 13.1773 28.4021C12.9286 27.2694 12.2032 26.5973 11.457 26.199C12.2397 25.9204 13.0642 25.7778 13.8949 25.7774C15.2383 25.7774 16.3762 26.1761 17.1003 26.9002C18.5021 28.3029 18.428 30.8253 17.804 32.5478C17.4066 31.8003 16.7337 31.0723 15.5979 30.8236C15.3567 30.7721 15.1105 30.7473 14.8639 30.7495C14.6749 30.7495 14.5007 30.7612 14.3317 30.7716C14.1909 30.7811 14.0574 30.7894 13.9374 30.7894Z" fill="white"/>
</svg>
