<svg width="44" height="44" viewBox="0 0 44 44" fill="none" xmlns="http://www.w3.org/2000/svg">
<path d="M13.7917 34.2049H13.4706C12.3059 34.2049 11.7236 34.2049 11.3618 33.8242C11 33.4434 11 32.8306 11 31.6049V30.1593C11 29.4853 11 29.1483 11.1645 28.8474C11.329 28.5463 11.5772 28.3944 12.0736 28.0906C15.3415 26.0903 19.9824 24.9644 23.0801 26.9087C23.2881 27.0393 23.4754 27.197 23.6352 27.386C24.3246 28.201 24.2745 29.4309 23.4799 30.1608C23.3121 30.3148 23.1333 30.4318 22.9532 30.4724C23.1012 30.4543 23.243 30.4336 23.3784 30.4109C24.5042 30.2219 25.4492 29.5888 26.3144 28.9009L28.5469 27.1263C29.3339 26.5006 30.502 26.5005 31.2891 27.1259C31.9978 27.6891 32.2145 28.6162 31.7664 29.3719C31.244 30.2533 30.5079 31.3808 29.8011 32.0697C29.0932 32.7596 28.0395 33.3755 27.1793 33.8125C26.2262 34.2966 25.1735 34.5754 24.1026 34.758C21.9309 35.1278 19.6676 35.0714 17.5178 34.6053C16.3025 34.3418 15.0404 34.2049 13.7917 34.2049Z" fill="white"/>
<path d="M14.1942 9.76153C13.7411 10.2383 13.5717 10.8971 13.5084 11.9247C15.0134 11.9036 16.2297 10.6236 16.2498 9.03979C15.2733 9.10644 14.6473 9.28471 14.1942 9.76153Z" fill="white"/>
<path d="M27.5705 9.76153C27.1174 9.28471 26.4915 9.10644 25.515 9.03979C25.535 10.6236 26.7512 11.9036 28.2563 11.9247C28.193 10.8971 28.0236 10.2383 27.5705 9.76153Z" fill="white"/>
<path d="M27.5705 18.6385C27.1174 19.1153 26.4915 19.2936 25.515 19.3602C25.5351 17.7764 26.7512 16.4964 28.2563 16.4753C28.193 17.5029 28.0236 18.1617 27.5705 18.6385Z" fill="white"/>
<path d="M14.1942 18.6385C14.6473 19.1153 15.2733 19.2936 16.2498 19.3602C16.2297 17.7764 15.0134 16.4964 13.5084 16.4753C13.5717 17.5029 13.7411 18.1617 14.1942 18.6385Z" fill="white"/>
<path fill-rule="evenodd" clip-rule="evenodd" d="M13.4706 13.875C16.029 13.875 18.1029 11.6924 18.1029 9H23.6618C23.6618 11.6924 25.7357 13.875 28.2941 13.875V14.525C25.7357 14.525 23.6618 16.7076 23.6618 19.4H18.1029C18.1029 16.7076 16.029 14.525 13.4706 14.525V13.875ZM20.8824 15.5C21.5646 15.5 22.1177 14.918 22.1177 14.2C22.1177 13.482 21.5646 12.9 20.8824 12.9C20.2001 12.9 19.6471 13.482 19.6471 14.2C19.6471 14.918 20.2001 15.5 20.8824 15.5Z" fill="white"/>
</svg>
