<svg width="44" height="44" viewBox="0 0 44 44" fill="none" xmlns="http://www.w3.org/2000/svg">
<path fill-rule="evenodd" clip-rule="evenodd" d="M0.996294 9.62448C0 12.2199 0 15.4799 0 22C0 28.5201 0 31.7801 0.996294 34.3755C2.51976 38.3443 5.65571 41.4802 9.62448 43.0037C12.2199 44 15.4799 44 22 44C28.5201 44 31.7801 44 34.3755 43.0037C38.3443 41.4802 41.4802 38.3443 43.0037 34.3755C44 31.7801 44 28.5201 44 22C44 15.4799 44 12.2199 43.0037 9.62448C41.4802 5.65571 38.3443 2.51976 34.3755 0.996294C31.7801 0 28.5201 0 22 0C15.4799 0 12.2199 0 9.62448 0.996294C5.65571 2.51976 2.51976 5.65571 0.996294 9.62448ZM21.8 19.4C24.8928 19.4 27.4 17.0719 27.4 14.2C27.4 11.3281 24.8928 9 21.8 9C18.7072 9 16.2 11.3281 16.2 14.2C16.2 17.0719 18.7072 19.4 21.8 19.4ZM28.1 35C25.7901 35 24.6351 35 23.9176 34.3336C23.2 33.6674 23.2 32.5949 23.2 30.45V30.45V30.45C23.2 28.3051 23.2 27.2326 23.9176 26.5664C24.6351 25.9 25.7901 25.9 28.1 25.9C30.4099 25.9 31.5649 25.9 32.2824 26.5664C33 27.2326 33 28.3051 33 30.45C33 32.5949 33 33.6674 32.2824 34.3336C31.5649 35 30.4099 35 28.1 35ZM28.9166 28.4277C28.9166 28.009 28.5511 27.6694 28.1 27.6694C27.6489 27.6694 27.2834 28.009 27.2834 28.4277V29.6917H25.9222C25.4712 29.6917 25.1055 30.0311 25.1055 30.45C25.1055 30.8689 25.4712 31.2083 25.9222 31.2083H27.2834V32.4723C27.2834 32.891 27.6489 33.2306 28.1 33.2306C28.5511 33.2306 28.9166 32.891 28.9166 32.4723V31.2083H30.2778C30.7288 31.2083 31.0945 30.8689 31.0945 30.45C31.0945 30.0311 30.7288 29.6917 30.2778 29.6917H28.9166V28.4277ZM21.8 23.3C23.536 23.3 25.1664 23.5395 26.5806 23.9596C26.0577 23.9711 25.5687 23.9961 25.1319 24.0506C24.2318 24.1631 23.2468 24.4316 22.4327 25.1875C21.6187 25.9433 21.3295 26.8581 21.2085 27.6939C21.0997 28.4448 21.0999 29.3624 21.1 30.338V30.338V30.338V30.3382V30.5618V30.562V30.562V30.562C21.0999 31.5376 21.0997 32.4552 21.2085 33.2061C21.2316 33.3662 21.261 33.5292 21.2989 33.6934C16.1194 33.5549 12 31.2828 12 28.5C12 25.6282 16.3876 23.3 21.8 23.3Z" fill="url(#paint0_linear_129_1354)"/>
<defs>
<linearGradient id="paint0_linear_129_1354" x1="44" y1="0" x2="0" y2="44" gradientUnits="userSpaceOnUse">
<stop stop-color="#FF24D3"/>
<stop offset="0.48" stop-color="#865FFE"/>
<stop offset="1" stop-color="#36BDFD"/>
</linearGradient>
</defs>
</svg>
