<svg width="44" height="44" viewBox="0 0 44 44" fill="none" xmlns="http://www.w3.org/2000/svg">
<path d="M20.8 19.4C23.8928 19.4 26.4 17.0719 26.4 14.2C26.4 11.3281 23.8928 9 20.8 9C17.7072 9 15.2 11.3281 15.2 14.2C15.2 17.0719 17.7072 19.4 20.8 19.4Z" fill="white"/>
<path fill-rule="evenodd" clip-rule="evenodd" d="M27.1 35C24.7901 35 23.6351 35 22.9176 34.3336C22.2 33.6674 22.2 32.5949 22.2 30.45C22.2 28.3051 22.2 27.2326 22.9176 26.5664C23.6351 25.9 24.7901 25.9 27.1 25.9C29.4099 25.9 30.5649 25.9 31.2824 26.5664C32 27.2326 32 28.3051 32 30.45C32 32.5949 32 33.6674 31.2824 34.3336C30.5649 35 29.4099 35 27.1 35ZM27.9166 28.4277C27.9166 28.009 27.5511 27.6694 27.1 27.6694C26.6489 27.6694 26.2834 28.009 26.2834 28.4277V29.6917H24.9222C24.4712 29.6917 24.1055 30.0311 24.1055 30.45C24.1055 30.8689 24.4712 31.2083 24.9222 31.2083H26.2834V32.4723C26.2834 32.891 26.6489 33.2306 27.1 33.2306C27.5511 33.2306 27.9166 32.891 27.9166 32.4723V31.2083H29.2778C29.7288 31.2083 30.0945 30.8689 30.0945 30.45C30.0945 30.0311 29.7288 29.6917 29.2778 29.6917H27.9166V28.4277Z" fill="white"/>
<path d="M25.5806 23.9596C24.1664 23.5395 22.536 23.3 20.8 23.3C15.3876 23.3 11 25.6282 11 28.5C11 31.2828 15.1194 33.5549 20.2989 33.6934C20.261 33.5292 20.2316 33.3662 20.2085 33.2061C20.0997 32.4551 20.0999 31.5374 20.1 30.5618V30.3382C20.0999 29.3625 20.0997 28.4449 20.2085 27.6939C20.3295 26.8581 20.6187 25.9433 21.4327 25.1875C22.2468 24.4316 23.2318 24.1631 24.1319 24.0506C24.5687 23.9962 25.0577 23.9711 25.5806 23.9596Z" fill="white"/>
</svg>
