<svg width="50" height="45" viewBox="0 0 50 45" fill="none" xmlns="http://www.w3.org/2000/svg">
<path fill-rule="evenodd" clip-rule="evenodd" d="M3.1465 5.8557C0 8.71143 0 13.3076 0 22.5C0 31.6923 0 36.2887 3.1465 39.1442C6.29303 42 11.3572 42 21.4857 42H25.5143C35.6427 42 40.7071 42 43.8534 39.1442C47 36.2887 47 31.6923 47 22.5C47 13.3076 47 8.71143 43.8534 5.8557C40.7071 3 35.6427 3 25.5143 3H21.4857C11.3572 3 6.29303 3 3.1465 5.8557ZM12.0686 21.2564C12.5332 15.5083 17.2986 11 23.0953 11C27.0961 11 30.6028 13.1468 32.5453 16.3627C32.8077 16.797 32.6745 17.3655 32.2477 17.6325C31.8209 17.8995 31.2624 17.7639 31.0001 17.3296C29.3761 14.6412 26.4444 12.8462 23.0953 12.8462C18.2894 12.8462 14.3492 16.5405 13.89 21.2564H14.9698C15.3372 21.2564 15.6684 21.4821 15.8084 21.8279C15.9483 22.1738 15.8694 22.5713 15.6086 22.8347L13.5772 24.886C13.2236 25.2431 12.6532 25.2431 12.2996 24.886L10.2682 22.8347C10.0073 22.5713 9.92842 22.1738 10.0684 21.8279C10.2083 21.4821 10.5395 21.2564 10.907 21.2564H12.0686ZM32.4163 21.1127C32.7696 20.7573 33.3381 20.7573 33.6913 21.1127L35.7306 23.1641C35.9921 23.4272 36.0717 23.825 35.9319 24.1713C35.7921 24.5175 35.4608 24.7436 35.093 24.7436H33.9235C33.4572 30.4944 28.6722 35 22.8582 35C18.8448 35 15.3258 32.8548 13.3757 29.6386C13.1126 29.2048 13.2449 28.6361 13.6712 28.3684C14.0975 28.1006 14.6563 28.2352 14.9193 28.669C16.5494 31.3573 19.4933 33.1538 22.8582 33.1538C27.687 33.1538 31.6409 29.4569 32.102 24.7436H31.0147C30.6468 24.7436 30.3155 24.5175 30.1757 24.1713C30.036 23.825 30.1155 23.4272 30.3772 23.1641L32.4163 21.1127Z" fill="url(#paint0_linear_278_3)"/>
<defs>
<linearGradient id="paint0_linear_278_3" x1="61.7427" y1="-3.85484" x2="13.3519" y2="62.0958" gradientUnits="userSpaceOnUse">
<stop stop-color="#FF24D3"/>
<stop offset="0.48" stop-color="#865FFE"/>
<stop offset="1" stop-color="#36BDFD"/>
</linearGradient>
</defs>
</svg>
