<svg width="50" height="45" viewBox="0 0 50 45" fill="none" xmlns="http://www.w3.org/2000/svg">
<path fill-rule="evenodd" clip-rule="evenodd" d="M0 22.5C0 13.3076 2.87251e-07 8.71143 2.82306 5.8557C5.64614 3 10.1898 3 19.2771 3H22.8916C31.9788 3 36.5227 3 39.3455 5.8557C42.1687 8.71143 42.1687 13.3076 42.1687 22.5C42.1687 31.6923 42.1687 36.2887 39.3455 39.1442C36.5227 42 31.9788 42 22.8916 42H19.2771C10.1898 42 5.64614 42 2.82306 39.1442C2.87251e-07 36.2887 0 31.6923 0 22.5ZM11.1705 13.5894C12.043 13.0991 13.1433 13.4171 13.628 14.2997L12.0482 15.1875C13.628 14.2997 13.6297 14.3029 13.6297 14.3029L13.6316 14.3063L13.6356 14.3137L13.6449 14.3311L13.6681 14.3758C13.6856 14.4101 13.707 14.4533 13.7316 14.5058C13.781 14.6107 13.8435 14.752 13.9144 14.9313C14.0563 15.29 14.2312 15.7993 14.4012 16.4702C14.7416 17.8132 15.0602 19.7941 15.0602 22.5C15.0602 25.2059 14.7416 27.1868 14.4012 28.5299C14.2312 29.2007 14.0563 29.7099 13.9144 30.0687C13.8435 30.2481 13.781 30.3895 13.7316 30.4943C13.707 30.5467 13.6856 30.5898 13.6681 30.6242L13.6449 30.669L13.6356 30.6863L13.6316 30.6937L13.6297 30.6971L13.628 30.7002L12.0482 29.8125C13.6157 30.6934 13.628 30.7002 13.628 30.7002C13.1433 31.5829 12.043 31.9009 11.1705 31.4105C10.3054 30.9245 9.98904 29.8262 10.4562 28.9472L10.4683 28.9223C10.4848 28.8872 10.5164 28.8173 10.5585 28.7108C10.6425 28.4982 10.7688 28.1392 10.9 27.6217C11.162 26.5882 11.4458 24.9129 11.4458 22.5C11.4458 20.0871 11.162 18.4118 10.9 17.3783C10.7688 16.8608 10.6425 16.5018 10.5585 16.2892C10.5164 16.1828 10.4848 16.1128 10.4683 16.0777L10.4562 16.0528C9.98904 15.1739 10.3054 14.0756 11.1705 13.5894ZM22.0617 14.2997C21.5771 13.4171 20.4769 13.0991 19.6043 13.5894C18.7392 14.0756 18.4228 15.1739 18.89 16.0528L18.902 16.0777C18.9185 16.1128 18.9501 16.1828 18.9922 16.2892C19.0763 16.5018 19.2026 16.8608 19.3337 17.3783C19.5957 18.4118 19.8795 20.0871 19.8795 22.5C19.8795 24.9129 19.5957 26.5882 19.3337 27.6217C19.2026 28.1392 19.0763 28.4982 18.9922 28.7108C18.9501 28.8173 18.9185 28.8872 18.902 28.9223L18.89 28.9472C18.4228 29.8262 18.7392 30.9245 19.6043 31.4105C20.4769 31.9009 21.5771 31.5829 22.0617 30.7002L20.4819 29.8125C22.0617 30.7002 22.0634 30.6971 22.0634 30.6971L22.0653 30.6937L22.0694 30.6863L22.0786 30.669L22.1019 30.6242C22.1193 30.5898 22.1407 30.5467 22.1653 30.4943C22.2147 30.3895 22.2773 30.2481 22.3482 30.0687C22.4899 29.7099 22.6648 29.2007 22.8349 28.5299C23.1754 27.1868 23.494 25.2059 23.494 22.5C23.494 19.7941 23.1754 17.8132 22.8349 16.4702C22.6648 15.7993 22.4899 15.29 22.3482 14.9313C22.2773 14.752 22.2147 14.6107 22.1653 14.5058C22.1407 14.4533 22.1193 14.4101 22.1019 14.3758L22.0786 14.3311L22.0694 14.3137L22.0653 14.3063L22.0634 14.3029L22.0617 14.2997ZM20.4824 15.1872C22.0494 14.3066 22.0617 14.2997 22.0617 14.2997L20.4824 15.1872ZM28.0381 13.5894C28.9106 13.0991 30.0108 13.4171 30.4954 14.2997L28.9157 15.1875C30.4954 14.2997 30.4971 14.3029 30.4971 14.3029L30.499 14.3063L30.5031 14.3137L30.5123 14.3311L30.5357 14.3758C30.553 14.4101 30.5745 14.4533 30.599 14.5058C30.6484 14.6107 30.7111 14.752 30.7819 14.9313C30.9236 15.29 31.0986 15.7993 31.2687 16.4702C31.6092 17.8132 31.9277 19.7941 31.9277 22.5C31.9277 25.2059 31.6092 27.1868 31.2687 28.5299C31.0986 29.2007 30.9236 29.7099 30.7819 30.0687C30.7111 30.2481 30.6484 30.3895 30.599 30.4943C30.5745 30.5467 30.553 30.5898 30.5357 30.6242L30.5123 30.669L30.5031 30.6863L30.499 30.6937L30.4971 30.6971L30.4954 30.7002L28.9214 29.8159C30.4831 30.6934 30.4954 30.7002 30.4954 30.7002C30.0108 31.5829 28.9106 31.9009 28.0381 31.4105C27.173 30.9245 26.8566 29.8262 27.3236 28.9472L27.3357 28.9223C27.3523 28.8872 27.3839 28.8173 27.426 28.7108C27.5101 28.4982 27.6364 28.1392 27.7675 27.6217C28.0294 26.5882 28.3133 24.9129 28.3133 22.5C28.3133 20.0871 28.0294 18.4118 27.7675 17.3783C27.6364 16.8608 27.5101 16.5018 27.426 16.2892C27.3839 16.1828 27.3523 16.1128 27.3357 16.0777L27.3236 16.0528C26.8566 15.1739 27.173 14.0756 28.0381 13.5894Z" fill="#1C274C"/>
<path fill-rule="evenodd" clip-rule="evenodd" d="M0 22.5C0 13.3076 2.87251e-07 8.71143 2.82306 5.8557C5.64614 3 10.1898 3 19.2771 3H22.8916C31.9788 3 36.5227 3 39.3455 5.8557C42.1687 8.71143 42.1687 13.3076 42.1687 22.5C42.1687 31.6923 42.1687 36.2887 39.3455 39.1442C36.5227 42 31.9788 42 22.8916 42H19.2771C10.1898 42 5.64614 42 2.82306 39.1442C2.87251e-07 36.2887 0 31.6923 0 22.5ZM11.1705 13.5894C12.043 13.0991 13.1433 13.4171 13.628 14.2997L12.0482 15.1875C13.628 14.2997 13.6297 14.3029 13.6297 14.3029L13.6316 14.3063L13.6356 14.3137L13.6449 14.3311L13.6681 14.3758C13.6856 14.4101 13.707 14.4533 13.7316 14.5058C13.781 14.6107 13.8435 14.752 13.9144 14.9313C14.0563 15.29 14.2312 15.7993 14.4012 16.4702C14.7416 17.8132 15.0602 19.7941 15.0602 22.5C15.0602 25.2059 14.7416 27.1868 14.4012 28.5299C14.2312 29.2007 14.0563 29.7099 13.9144 30.0687C13.8435 30.2481 13.781 30.3895 13.7316 30.4943C13.707 30.5467 13.6856 30.5898 13.6681 30.6242L13.6449 30.669L13.6356 30.6863L13.6316 30.6937L13.6297 30.6971L13.628 30.7002L12.0482 29.8125C13.6157 30.6934 13.628 30.7002 13.628 30.7002C13.1433 31.5829 12.043 31.9009 11.1705 31.4105C10.3054 30.9245 9.98904 29.8262 10.4562 28.9472L10.4683 28.9223C10.4848 28.8872 10.5164 28.8173 10.5585 28.7108C10.6425 28.4982 10.7688 28.1392 10.9 27.6217C11.162 26.5882 11.4458 24.9129 11.4458 22.5C11.4458 20.0871 11.162 18.4118 10.9 17.3783C10.7688 16.8608 10.6425 16.5018 10.5585 16.2892C10.5164 16.1828 10.4848 16.1128 10.4683 16.0777L10.4562 16.0528C9.98904 15.1739 10.3054 14.0756 11.1705 13.5894ZM22.0617 14.2997C21.5771 13.4171 20.4769 13.0991 19.6043 13.5894C18.7392 14.0756 18.4228 15.1739 18.89 16.0528L18.902 16.0777C18.9185 16.1128 18.9501 16.1828 18.9922 16.2892C19.0763 16.5018 19.2026 16.8608 19.3337 17.3783C19.5957 18.4118 19.8795 20.0871 19.8795 22.5C19.8795 24.9129 19.5957 26.5882 19.3337 27.6217C19.2026 28.1392 19.0763 28.4982 18.9922 28.7108C18.9501 28.8173 18.9185 28.8872 18.902 28.9223L18.89 28.9472C18.4228 29.8262 18.7392 30.9245 19.6043 31.4105C20.4769 31.9009 21.5771 31.5829 22.0617 30.7002L20.4819 29.8125C22.0617 30.7002 22.0634 30.6971 22.0634 30.6971L22.0653 30.6937L22.0694 30.6863L22.0786 30.669L22.1019 30.6242C22.1193 30.5898 22.1407 30.5467 22.1653 30.4943C22.2147 30.3895 22.2773 30.2481 22.3482 30.0687C22.4899 29.7099 22.6648 29.2007 22.8349 28.5299C23.1754 27.1868 23.494 25.2059 23.494 22.5C23.494 19.7941 23.1754 17.8132 22.8349 16.4702C22.6648 15.7993 22.4899 15.29 22.3482 14.9313C22.2773 14.752 22.2147 14.6107 22.1653 14.5058C22.1407 14.4533 22.1193 14.4101 22.1019 14.3758L22.0786 14.3311L22.0694 14.3137L22.0653 14.3063L22.0634 14.3029L22.0617 14.2997ZM20.4824 15.1872C22.0494 14.3066 22.0617 14.2997 22.0617 14.2997L20.4824 15.1872ZM28.0381 13.5894C28.9106 13.0991 30.0108 13.4171 30.4954 14.2997L28.9157 15.1875C30.4954 14.2997 30.4971 14.3029 30.4971 14.3029L30.499 14.3063L30.5031 14.3137L30.5123 14.3311L30.5357 14.3758C30.553 14.4101 30.5745 14.4533 30.599 14.5058C30.6484 14.6107 30.7111 14.752 30.7819 14.9313C30.9236 15.29 31.0986 15.7993 31.2687 16.4702C31.6092 17.8132 31.9277 19.7941 31.9277 22.5C31.9277 25.2059 31.6092 27.1868 31.2687 28.5299C31.0986 29.2007 30.9236 29.7099 30.7819 30.0687C30.7111 30.2481 30.6484 30.3895 30.599 30.4943C30.5745 30.5467 30.553 30.5898 30.5357 30.6242L30.5123 30.669L30.5031 30.6863L30.499 30.6937L30.4971 30.6971L30.4954 30.7002L28.9214 29.8159C30.4831 30.6934 30.4954 30.7002 30.4954 30.7002C30.0108 31.5829 28.9106 31.9009 28.0381 31.4105C27.173 30.9245 26.8566 29.8262 27.3236 28.9472L27.3357 28.9223C27.3523 28.8872 27.3839 28.8173 27.426 28.7108C27.5101 28.4982 27.6364 28.1392 27.7675 27.6217C28.0294 26.5882 28.3133 24.9129 28.3133 22.5C28.3133 20.0871 28.0294 18.4118 27.7675 17.3783C27.6364 16.8608 27.5101 16.5018 27.426 16.2892C27.3839 16.1828 27.3523 16.1128 27.3357 16.0777L27.3236 16.0528C26.8566 15.1739 27.173 14.0756 28.0381 13.5894Z" fill="url(#paint0_linear_278_578)"/>
<path d="M46.3855 27.375C46.3855 28.3846 47.1947 29.2031 48.1928 29.2031C49.1908 29.2031 50 28.3846 50 27.375V17.625C50 16.6154 49.1908 15.7969 48.1928 15.7969C47.1947 15.7969 46.3855 16.6154 46.3855 17.625V27.375Z" fill="#1C274C"/>
<path d="M46.3855 27.375C46.3855 28.3846 47.1947 29.2031 48.1928 29.2031C49.1908 29.2031 50 28.3846 50 27.375V17.625C50 16.6154 49.1908 15.7969 48.1928 15.7969C47.1947 15.7969 46.3855 16.6154 46.3855 17.625V27.375Z" fill="url(#paint1_linear_278_578)"/>
<defs>
<linearGradient id="paint0_linear_278_578" x1="54.8077" y1="-1.40323" x2="10.6435" y2="57.5064" gradientUnits="userSpaceOnUse">
<stop stop-color="#FF24D3"/>
<stop offset="0.48" stop-color="#865FFE"/>
<stop offset="1" stop-color="#36BDFD"/>
</linearGradient>
<linearGradient id="paint1_linear_278_578" x1="54.8077" y1="-1.40323" x2="10.6435" y2="57.5064" gradientUnits="userSpaceOnUse">
<stop stop-color="#FF24D3"/>
<stop offset="0.48" stop-color="#865FFE"/>
<stop offset="1" stop-color="#36BDFD"/>
</linearGradient>
</defs>
</svg>
