<svg width="50" height="45" viewBox="0 0 50 45" fill="none" xmlns="http://www.w3.org/2000/svg">
<path fill-rule="evenodd" clip-rule="evenodd" d="M3.1465 5.8557C0 8.71143 0 13.3076 0 22.5C0 31.6923 0 36.2887 3.1465 39.1442C6.29303 42 11.3572 42 21.4857 42H25.5143C35.6427 42 40.7071 42 43.8534 39.1442C47 36.2887 47 31.6923 47 22.5C47 13.3076 47 8.71143 43.8534 5.8557C40.7071 3 35.6427 3 25.5143 3H21.4857C11.3572 3 6.29303 3 3.1465 5.8557ZM27.7585 30.3989C28.9367 31.4663 30.6101 32 32.7786 32C34.7935 32 36.4328 31.4663 37.6963 30.3989C38.9599 29.3314 39.5917 27.9455 39.5917 26.241C39.5917 25.363 39.438 24.6485 39.1307 24.0976C38.8233 23.5294 38.3196 23.056 37.6195 22.6772C38.422 22.2468 38.9941 21.7475 39.3356 21.1793C39.6771 20.6112 39.8478 19.8881 39.8478 19.01C39.8478 17.4433 39.3014 16.2209 38.2086 15.3429C37.1328 14.4476 35.6473 14 33.7519 14C31.9932 14 30.5844 14.4304 29.5258 15.2912C28.3988 16.2037 27.6987 17.6499 27.4255 19.6298H31.8566C31.959 18.8895 32.1639 18.3558 32.4713 18.0287C32.7786 17.7016 33.2226 17.538 33.8031 17.538C34.3325 17.538 34.7594 17.693 35.0838 18.0029C35.4253 18.3128 35.5961 18.7174 35.5961 19.2166C35.5961 19.7676 35.4082 20.2152 35.0326 20.5595C34.6569 20.9039 34.1703 21.076 33.5726 21.076C33.436 21.076 33.1799 21.0502 32.8042 20.9986L32.3944 24.2525C32.5652 24.2353 32.7445 24.2267 32.9323 24.2267C33.6153 24.2267 34.1532 24.4075 34.5459 24.769C34.9557 25.1306 35.1606 25.6126 35.1606 26.2152C35.1606 26.8694 34.9472 27.3859 34.5203 27.7647C34.0934 28.1435 33.5129 28.3329 32.7786 28.3329C32.0444 28.3329 31.4638 28.1435 31.0369 27.7647C30.6271 27.3687 30.4222 26.8178 30.4222 26.1119V25.7504H25.9656C25.9826 27.7647 26.5803 29.3142 27.7585 30.3989ZM19.7026 22.8063L26.4388 14.3874H21.2137L19.1391 17.0732C18.7805 17.5208 18.2085 18.3558 17.423 19.5782C16.9278 18.4419 16.407 17.3831 15.8606 16.4017L14.7336 14.3874H9.71348L14.6056 22.5481L7.15217 31.6126H12.5309L15.1947 28.2554C15.7923 27.4978 16.3473 26.6714 16.8595 25.7762C17.3718 27.0158 17.9011 28.1004 18.4475 29.0301L20.0099 31.6126H24.9789L19.7026 22.8063Z" fill="url(#paint0_linear_129_1866)"/>
<defs>
<linearGradient id="paint0_linear_129_1866" x1="61.7427" y1="-3.85484" x2="13.3519" y2="62.0958" gradientUnits="userSpaceOnUse">
<stop stop-color="#FF24D3"/>
<stop offset="0.48" stop-color="#865FFE"/>
<stop offset="1" stop-color="#36BDFD"/>
</linearGradient>
</defs>
</svg>
