<svg width="50" height="45" viewBox="0 0 50 45" fill="none" xmlns="http://www.w3.org/2000/svg">
<path fill-rule="evenodd" clip-rule="evenodd" d="M3.1465 5.8557C0 8.71143 0 13.3076 0 22.5C0 31.6923 0 36.2887 3.1465 39.1442C6.29303 42 11.3572 42 21.4857 42H25.5143C35.6427 42 40.7071 42 43.8534 39.1442C47 36.2887 47 31.6923 47 22.5C47 13.3076 47 8.71143 43.8534 5.8557C40.7071 3 35.6427 3 25.5143 3H21.4857C11.3572 3 6.29303 3 3.1465 5.8557ZM19.717 22.6041L26.5427 14H21.2483L19.1461 16.7449C18.7827 17.2023 18.2031 18.0557 17.4072 19.305C16.9054 18.1437 16.3777 17.0616 15.8241 16.0587L14.6821 14H9.59531L14.5524 22.3402L7 31.6041H12.4502L15.1493 28.173C15.7549 27.3988 16.3172 26.5543 16.8362 25.6393C17.3553 26.9062 17.8917 28.0147 18.4453 28.9648L20.0285 31.6041H25.0634L19.717 22.6041ZM40 14H30.6569L27.6204 23.607C29.1602 23.044 30.5271 22.7625 31.721 22.7625C32.8975 22.7625 33.8059 22.9912 34.446 23.4487C35.0862 23.8886 35.4063 24.5308 35.4063 25.3754C35.4063 26.2023 35.0949 26.871 34.472 27.3812C33.8491 27.8915 33.0359 28.1466 32.0324 28.1466C31.4614 28.1466 30.7866 28.0411 30.008 27.8299C28.8661 27.4604 27.828 26.871 26.8937 26.0616L25.6479 30.0997C26.738 30.6628 27.4041 30.9971 27.6463 31.1026C29.0478 31.7009 30.5531 32 32.1622 32C34.4114 32 36.2627 31.3666 37.7161 30.0997C39.1695 28.8153 39.8962 27.1965 39.8962 25.2434C39.8962 23.5718 39.3858 22.2786 38.365 21.3636C37.3614 20.4311 35.9427 19.9648 34.1086 19.9648C33.6588 19.9648 33.2089 19.9912 32.7591 20.044L33.4598 17.8798H39.5328L40 14Z" fill="url(#paint0_linear_419_1290)"/>
<defs>
<linearGradient id="paint0_linear_419_1290" x1="61.7427" y1="-3.85484" x2="13.3519" y2="62.0958" gradientUnits="userSpaceOnUse">
<stop stop-color="#FF24D3"/>
<stop offset="0.48" stop-color="#865FFE"/>
<stop offset="1" stop-color="#36BDFD"/>
</linearGradient>
</defs>
</svg>
