<svg width="18" height="18" viewBox="0 0 18 18" fill="none" xmlns="http://www.w3.org/2000/svg">
<path fill-rule="evenodd" clip-rule="evenodd" d="M3.83362 1.63687C5.34505 0.570841 7.14952 -0.000972602 8.99907 1.24183e-06C13.9711 1.24183e-06 18 4.02894 18 9.00031C18 10.9286 17.3887 12.7112 16.3557 14.1763C15.6452 15.1747 15.1585 15.6438 14.1825 16.3513C12.6679 17.4252 10.8569 18.0013 9.00031 18C4.02893 18 0 13.9711 0 8.99969C0 7.07327 0.610106 5.29255 1.64059 3.82805C2.36107 2.87636 2.84403 2.39575 3.83362 1.63687ZM8.929 9.09331C7.78381 9.98119 4.36499 11.3843 5.23054 16.0134C3.94882 15.3202 2.88123 14.2895 2.14343 13.033C2.07189 12.3861 2.14669 11.7315 2.36231 11.1175C2.57792 10.5035 2.92883 9.94586 3.38907 9.48579C4.91123 7.96362 7.27725 7.80862 8.98543 9.00651L8.99473 8.99349L8.98853 8.97613C8.09693 7.88488 6.71117 4.34329 1.98966 5.22559C2.68115 3.9502 3.70675 2.88709 4.95649 2.15025C5.60639 2.07849 6.26411 2.15385 6.88093 2.37076C7.49774 2.58767 8.05786 2.94058 8.51979 3.40333C9.24187 4.12527 9.68848 5.07719 9.78214 6.09396C9.8758 7.11074 9.6106 8.12947 9.03255 8.97117C10.1021 8.08515 13.6778 6.72171 12.798 2.00145C14.0659 2.6945 15.1223 3.7183 15.8547 4.96394C15.9279 5.61187 15.854 6.26796 15.6385 6.88338C15.4231 7.49881 15.0716 8.05773 14.6103 8.51855C13.0919 10.0376 10.7314 10.1957 9.02511 9.00527L9.02325 9.01209C9.91299 10.0742 11.2814 13.6536 16.0017 12.7936C15.3078 14.0647 14.2815 15.1233 13.0323 15.8559C12.3842 15.9266 11.7284 15.8506 11.1135 15.6336C10.4987 15.4166 9.94046 15.0641 9.48021 14.6023C8.76623 13.8889 8.3212 12.9505 8.22072 11.9462C8.12024 10.942 8.37051 9.93394 8.929 9.09331Z" fill="#0B090E"/>
</svg>
