<svg width="23" height="23" viewBox="0 0 23 23" fill="none" xmlns="http://www.w3.org/2000/svg">
<path fill-rule="evenodd" clip-rule="evenodd" d="M4.89852 2.09156C6.82979 0.729408 9.1355 -0.00124277 11.4988 1.58678e-06C17.8519 1.58678e-06 23 5.14808 23 11.5004C23 13.9643 22.2188 16.242 20.8989 18.1142C19.9911 19.3899 19.3692 19.9892 18.1221 20.8934C16.1868 22.2655 13.8727 23.0017 11.5004 23C5.14808 23 0 17.8519 0 11.4996C0 9.03806 0.779579 6.7627 2.09631 4.89139C3.01693 3.67535 3.63404 3.06124 4.89852 2.09156ZM11.4093 11.6192C9.94599 12.7537 5.57748 14.5466 6.68347 20.4616C5.04572 19.5759 3.68158 18.2588 2.73883 16.6532C2.64742 15.8267 2.743 14.9903 3.0185 14.2057C3.29401 13.4212 3.74239 12.7086 4.33047 12.1207C6.27547 10.1757 9.29871 9.97768 11.4814 11.5083L11.4933 11.4917L11.4853 11.4695C10.3461 10.0751 8.57538 5.54976 2.54235 6.67714C3.42591 5.04748 4.73641 3.68906 6.3333 2.74755C7.16372 2.65585 8.00414 2.75214 8.79229 3.02931C9.58045 3.30647 10.2962 3.7574 10.8864 4.3487C11.8091 5.27118 12.3797 6.48752 12.4994 7.78673C12.6191 9.08595 12.2802 10.3877 11.5416 11.4632C12.9082 10.331 17.4772 8.58885 16.353 2.5574C17.9731 3.44297 19.3229 4.75116 20.2588 6.34281C20.3523 7.17072 20.2579 8.00906 19.9826 8.79544C19.7073 9.58181 19.2582 10.296 18.6687 10.8848C16.7285 12.8258 13.7124 13.0279 11.5321 11.5067L11.5297 11.5154C12.6666 12.8726 14.4151 17.4463 20.4466 16.3474C19.56 17.9716 18.2485 19.3242 16.6524 20.2604C15.8242 20.3506 14.9863 20.2535 14.2006 19.9762C13.415 19.699 12.7017 19.2486 12.1136 18.6584C11.2013 17.747 10.6326 16.5478 10.5043 15.2646C10.3759 13.9814 10.6956 12.6934 11.4093 11.6192Z" fill="url(#paint0_linear_278_274)"/>
<defs>
<linearGradient id="paint0_linear_278_274" x1="-2.21154" y1="-2.59677" x2="24.901" y2="25.6118" gradientUnits="userSpaceOnUse">
<stop stop-color="#FF24D3"/>
<stop offset="0.48" stop-color="#865FFE"/>
<stop offset="1" stop-color="#36BDFD"/>
</linearGradient>
</defs>
</svg>
