<svg width="78" height="78" viewBox="0 0 78 78" fill="none" xmlns="http://www.w3.org/2000/svg">
<path fill-rule="evenodd" clip-rule="evenodd" d="M31.1753 10.4009C30.3839 11.0753 29.9881 11.4126 29.5655 11.6959C28.5966 12.3452 27.5086 12.7959 26.3643 13.0218C25.8652 13.1204 25.3469 13.1617 24.3103 13.2445C21.7058 13.4523 20.4035 13.5562 19.3171 13.94C16.8042 14.8276 14.8276 16.8042 13.94 19.3171C13.5562 20.4035 13.4523 21.7058 13.2445 24.3103C13.1618 25.3468 13.1204 25.8652 13.0218 26.3643C12.7959 27.5085 12.3453 28.5966 11.6959 29.5654C11.4126 29.9881 11.0754 30.3838 10.4009 31.1753C8.70621 33.164 7.85883 34.1581 7.36197 35.1978C6.21268 37.6025 6.21268 40.3975 7.36197 42.8022C7.85887 43.8418 8.70621 44.836 10.4009 46.8247C11.0753 47.6161 11.4126 48.0119 11.6959 48.4344C12.3453 49.4032 12.7959 50.4913 13.0218 51.6357C13.1204 52.1349 13.1618 52.6532 13.2445 53.6897C13.4523 56.2942 13.5562 57.5965 13.94 58.683C14.8276 61.1959 16.8042 63.1725 19.3171 64.0601C20.4035 64.4436 21.7058 64.5476 24.3103 64.7556C25.3469 64.8381 25.8652 64.8797 26.3643 64.9782C27.5086 65.2041 28.5966 65.6549 29.5655 66.3042C29.9881 66.5873 30.3838 66.9246 31.1753 67.599C33.164 69.2939 34.1582 70.1412 35.1978 70.6381C37.6025 71.7873 40.3975 71.7873 42.8022 70.6381C43.8419 70.1412 44.836 69.2939 46.8247 67.599C47.6161 66.9246 48.0119 66.5873 48.4344 66.3042C49.4033 65.6549 50.4914 65.2041 51.6357 64.9782C52.1349 64.8797 52.6533 64.8381 53.6897 64.7556C56.2942 64.5476 57.5965 64.4436 58.683 64.0601C61.1959 63.1725 63.1725 61.1959 64.0601 58.683C64.4436 57.5965 64.5476 56.2942 64.7556 53.6897C64.8382 52.6532 64.8798 52.1349 64.9782 51.6357C65.2041 50.4913 65.6549 49.4032 66.3042 48.4344C66.5873 48.0119 66.9247 47.6161 67.599 46.8247C69.2939 44.836 70.1412 43.8418 70.6381 42.8022C71.7873 40.3975 71.7873 37.6025 70.6381 35.1978C70.1412 34.1581 69.2939 33.164 67.599 31.1753C66.9247 30.3838 66.5873 29.9881 66.3042 29.5654C65.6549 28.5966 65.2041 27.5085 64.9782 26.3643C64.8798 25.8652 64.8382 25.3468 64.7556 24.3103C64.5476 21.7058 64.4436 20.4035 64.0601 19.3171C63.1725 16.8042 61.1959 14.8276 58.683 13.94C57.5965 13.5562 56.2942 13.4523 53.6897 13.2445C52.6533 13.1617 52.1349 13.1204 51.6357 13.0218C50.4914 12.7959 49.4033 12.3452 48.4344 11.6959C48.0119 11.4126 47.6161 11.0754 46.8247 10.4009C44.836 8.70619 43.8419 7.85885 42.8022 7.36196C40.3975 6.21266 37.6025 6.21266 35.1978 7.36196C34.1582 7.85882 33.164 8.70619 31.1753 10.4009ZM53.2139 32.0552C54.2467 31.0222 54.2467 29.3475 53.2139 28.3145C52.181 27.2816 50.506 27.2816 49.4731 28.3145L33.71 44.0778L28.5268 38.8947C27.4938 37.8618 25.819 37.8618 24.7861 38.8947C23.7532 39.9275 23.7532 41.6023 24.7861 42.6354L31.8395 49.6889C32.8725 50.7218 34.5472 50.7218 35.5804 49.6889L53.2139 32.0552Z" fill="url(#paint0_linear_127_877)"/>
<defs>
<linearGradient id="paint0_linear_127_877" x1="77.75" y1="-0.838728" x2="1.12753" y2="78.8812" gradientUnits="userSpaceOnUse">
<stop stop-color="#FF24D3"/>
<stop offset="0.48" stop-color="#865FFE"/>
<stop offset="1" stop-color="#36BDFD"/>
</linearGradient>
</defs>
</svg>
