<svg width="50" height="50" viewBox="0 0 50 50" fill="none" xmlns="http://www.w3.org/2000/svg">
<path fill-rule="evenodd" clip-rule="evenodd" d="M1.6349 8.19014C0 11.3988 0 15.5992 0 24V26C0 34.4008 0 38.6012 1.6349 41.8099C3.073 44.6323 5.36771 46.927 8.19014 48.3651C11.3988 50 15.5992 50 24 50H26C34.4008 50 38.6012 50 41.8099 48.3651C44.6323 46.927 46.927 44.6323 48.3651 41.8099C50 38.6012 50 34.4008 50 26V24C50 15.5992 50 11.3988 48.3651 8.19014C46.927 5.36771 44.6323 3.073 41.8099 1.6349C38.6012 0 34.4008 0 26 0H24C15.5992 0 11.3988 0 8.19014 1.6349C5.36771 3.073 3.073 5.36771 1.6349 8.19014ZM19.6608 25.5C19.6608 22.8375 21.8336 20.6646 24.4961 20.6646C27.1586 20.6646 29.3314 22.8375 29.3314 25.5C29.3314 28.1625 27.1586 30.3354 24.4961 30.3354C21.8336 30.3354 19.6608 28.1625 19.6608 25.5ZM38.9989 24.7676C38.9987 25.0115 38.9984 25.2556 38.9984 25.5C38.9984 25.7733 38.9988 26.0463 38.9992 26.319C39.0018 28.0443 39.0043 29.7594 38.9041 31.4853C38.7916 33.8069 38.2657 35.8636 36.5644 37.5649C34.8668 39.2625 32.8064 39.7922 30.4849 39.9046C28.7302 40.0033 26.9866 40.0014 25.2321 39.9995C24.9882 39.9992 24.7441 39.9989 24.4997 39.9989C24.2558 39.9989 24.0122 39.9992 23.7687 39.9995C22.0166 40.0014 20.2725 40.0033 18.5145 39.9046C16.193 39.7922 14.1363 39.2662 12.4351 37.5649C10.7374 35.8673 10.2078 33.8069 10.0954 31.4853C9.99666 29.7304 9.9986 27.984 10.0005 26.2312C10.0008 25.9876 10.0011 25.7439 10.0011 25.5C10.0011 25.2561 10.0008 25.0124 10.0005 24.7689C9.9986 23.0167 9.99666 21.2727 10.0954 19.5147C10.2078 17.1931 10.7338 15.1364 12.4351 13.4351C14.1327 11.7375 16.193 11.2078 18.5145 11.0954C20.2693 10.9967 22.0128 10.9986 23.7673 11.0005C24.0112 11.0008 24.2553 11.0011 24.4997 11.0011C24.7436 11.0011 24.9873 11.0008 25.2308 11.0005C26.9829 10.9986 28.7269 10.9967 30.4849 11.0954C32.8064 11.2078 34.8632 11.7338 36.5644 13.4351C38.262 15.1327 38.7916 17.1931 38.9041 19.5147C39.0028 21.2695 39.0009 23.0131 38.9989 24.7676ZM17.0563 25.5C17.0563 29.6172 20.379 32.9399 24.4961 32.9399C28.6132 32.9399 31.9359 29.6172 31.9359 25.5C31.9359 21.3828 28.6132 18.0601 24.4961 18.0601C20.379 18.0601 17.0563 21.3828 17.0563 25.5ZM30.503 17.7554C30.503 18.7167 31.2793 19.4929 32.2406 19.4929C32.4688 19.4932 32.6949 19.4485 32.9058 19.3613C33.1168 19.274 33.3084 19.1461 33.4698 18.9847C33.6312 18.8233 33.7592 18.6316 33.8464 18.4207C33.9336 18.2097 33.9784 17.9837 33.9781 17.7554C33.9781 16.7941 33.2018 16.0178 32.2406 16.0178C31.2793 16.0178 30.503 16.7941 30.503 17.7554Z" fill="url(#paint0_linear_278_434)"/>
<defs>
<linearGradient id="paint0_linear_278_434" x1="54.8077" y1="-5.64516" x2="-4.13267" y2="55.6778" gradientUnits="userSpaceOnUse">
<stop stop-color="#FF24D3"/>
<stop offset="0.48" stop-color="#865FFE"/>
<stop offset="1" stop-color="#36BDFD"/>
</linearGradient>
</defs>
</svg>
