<svg width="50" height="50" viewBox="0 0 50 50" fill="none" xmlns="http://www.w3.org/2000/svg">
<path fill-rule="evenodd" clip-rule="evenodd" d="M1.6349 8.19014C0 11.3988 0 15.5992 0 24V26C0 34.4008 0 38.6012 1.6349 41.8099C3.073 44.6323 5.36771 46.927 8.19014 48.3651C11.3988 50 15.5992 50 24 50H26C34.4008 50 38.6012 50 41.8099 48.3651C44.6323 46.927 46.927 44.6323 48.3651 41.8099C50 38.6012 50 34.4008 50 26V24C50 15.5992 50 11.3988 48.3651 8.19014C46.927 5.36771 44.6323 3.073 41.8099 1.6349C38.6012 0 34.4008 0 26 0H24C15.5992 0 11.3988 0 8.19014 1.6349C5.36771 3.073 3.073 5.36771 1.6349 8.19014ZM24.2 22C27.7346 22 30.6 19.3137 30.6 16C30.6 12.6863 27.7346 10 24.2 10C20.6654 10 17.8 12.6863 17.8 16C17.8 19.3137 20.6654 22 24.2 22ZM31.4 40C28.7602 40 27.4402 40 26.6202 39.2311C25.8 38.4623 25.8 37.2248 25.8 34.75C25.8 32.2752 25.8 31.0376 26.6202 30.2689C27.4402 29.5 28.7602 29.5 31.4 29.5C34.0398 29.5 35.3598 29.5 36.1798 30.2689C37 31.0376 37 32.2752 37 34.75C37 37.2248 37 38.4623 36.1798 39.2311C35.3598 40 34.0398 40 31.4 40ZM32.3333 32.4166C32.3333 31.9335 31.9155 31.5416 31.4 31.5416C30.8845 31.5416 30.4667 31.9335 30.4667 32.4166V33.875H28.911C28.3957 33.875 27.9778 34.2667 27.9778 34.75C27.9778 35.2333 28.3957 35.625 28.911 35.625H30.4667V37.0834C30.4667 37.5665 30.8845 37.9584 31.4 37.9584C31.9155 37.9584 32.3333 37.5665 32.3333 37.0834V35.625H33.889C34.4043 35.625 34.8222 35.2333 34.8222 34.75C34.8222 34.2667 34.4043 33.875 33.889 33.875H32.3333V32.4166ZM24.2 26.5C26.184 26.5 28.0474 26.7763 29.6635 27.2611C29.0659 27.2743 28.507 27.3032 28.0078 27.3661C26.9792 27.4958 25.8534 27.8057 24.923 28.6778C23.9928 29.5499 23.6622 30.6055 23.524 31.5699C23.3997 32.4363 23.3998 33.4951 23.4 34.6208V34.621V34.879V34.8792C23.3998 36.0049 23.3997 37.0637 23.524 37.9301C23.5504 38.1148 23.584 38.3029 23.6274 38.4923C17.7079 38.3326 13 35.7109 13 32.5C13 29.1863 18.0144 26.5 24.2 26.5Z" fill="url(#paint0_linear_278_350)"/>
<defs>
<linearGradient id="paint0_linear_278_350" x1="54.8077" y1="-5.64516" x2="-4.13267" y2="55.6778" gradientUnits="userSpaceOnUse">
<stop stop-color="#FF24D3"/>
<stop offset="0.48" stop-color="#865FFE"/>
<stop offset="1" stop-color="#36BDFD"/>
</linearGradient>
</defs>
</svg>
