<svg width="50" height="50" viewBox="0 0 50 50" fill="none" xmlns="http://www.w3.org/2000/svg">
<path fill-rule="evenodd" clip-rule="evenodd" d="M1.6349 8.19014C0 11.3988 0 15.5992 0 24V26C0 34.4008 0 38.6012 1.6349 41.8099C3.073 44.6323 5.36771 46.927 8.19014 48.3651C11.3988 50 15.5992 50 24 50H26C34.4008 50 38.6012 50 41.8099 48.3651C44.6323 46.927 46.927 44.6323 48.3651 41.8099C50 38.6012 50 34.4008 50 26V24C50 15.5992 50 11.3988 48.3651 8.19014C46.927 5.36771 44.6323 3.073 41.8099 1.6349C38.6012 0 34.4008 0 26 0H24C15.5992 0 11.3988 0 8.19014 1.6349C5.36771 3.073 3.073 5.36771 1.6349 8.19014ZM37.9872 15.6253C38.2031 13.2075 35.6129 14.2031 35.6129 14.2031C33.7004 14.9834 31.728 15.7765 29.7343 16.5781C23.5525 19.0636 17.1659 21.6315 11.7254 24.1588C8.77547 25.2255 10.5023 26.2922 10.5023 26.2922L15.1791 27.7144C17.3375 28.3544 18.4887 27.6433 18.4887 27.6433L28.5617 20.8876C32.1593 18.4698 31.2959 20.461 30.4325 21.3143L22.8777 28.4255C21.7265 29.4211 22.3021 30.2745 22.8057 30.7011C24.2331 31.9426 27.7444 34.2139 29.2775 35.2055C29.6764 35.4636 29.9413 35.635 30.0007 35.679C30.3605 35.9635 32.3031 37.2435 33.5983 36.959C34.8934 36.6746 35.0373 35.039 35.0373 35.039L36.7641 23.8744C37.0231 21.9361 37.3202 20.0731 37.5574 18.5852C37.7815 17.1797 37.9523 16.1089 37.9872 15.6253Z" fill="url(#paint0_linear_278_858)"/>
<defs>
<linearGradient id="paint0_linear_278_858" x1="54.6969" y1="-5.64516" x2="-4.24805" y2="55.5587" gradientUnits="userSpaceOnUse">
<stop stop-color="#FF24D3"/>
<stop offset="0.48" stop-color="#865FFE"/>
<stop offset="1" stop-color="#36BDFD"/>
</linearGradient>
</defs>
</svg>
